<?xml version="1.0" encoding="utf-8"?>
<!-- Generator: Adobe Illustrator 16.2.1, SVG Export Plug-In . SVG Version: 6.00 Build 0)  -->
<!DOCTYPE svg PUBLIC "-//W3C//DTD SVG 1.1 Tiny//EN" "http://www.w3.org/Graphics/SVG/1.1/DTD/svg11-tiny.dtd">
<svg version="1.1" baseProfile="tiny" id="Layer_1" xmlns="http://www.w3.org/2000/svg" xmlns:xlink="http://www.w3.org/1999/xlink"
	 x="0px" y="0px" width="268px" height="142px" viewBox="0 0 268 142" xml:space="preserve">
<g id="Layer_1_1_">
	<g>
		<path fill="#C2D1D1" d="M48.469,89.452c0,0,4.255,5.419,15.001,6.819c1.509,0.197,7.097,0.344,15.199,0.44
			c3.98,7.509,19.898,32.188,56.918,31.612c36.642-0.571,47.082-24.443,49.494-32.096c7.774-0.182,13.364-0.393,15.463-0.64
			c11.599-1.364,14.322-7.162,14.322-7.162L48.469,89.452z"/>
		<path fill="#6FC21F" d="M86.245,30.11c0,0-8.695,13.298-6.139,32.223c2.559,18.925,14.322,23.528,14.322,23.528h18.925
			c0,0-9.718-8.695-14.833-17.392c-5.115-8.696-6.138-15.854-6.138-15.854s8.695,14.833,17.901,23.016
			c9.207,8.184,11.764,9.207,11.764,9.207h30.689c0,0,5.285-1.875,13.13-8.013c6.834-5.35,10.229-12.275,10.229-12.275
			s-2.388,7.161-6.48,12.275c-4.09,5.114-9.207,8.013-9.207,8.013s11.121-0.947,19.098-10.74c7.5-9.207,5.453-28.644,5.453-28.644
			s-9.156,9.614-24.039,11.253c-18.582,2.046-21.652,17.05-21.652,17.05S137.393,54.15,115.4,47.5
			C93.405,40.851,88.291,35.736,86.245,30.11z"/>
	</g>
</g>
<g id="Layer_2">
</g>
</svg>
